<svg xmlns="http://www.w3.org/2000/svg" width="256" height="256"><path fill="#EE9947" d="m19.64 15.619 2.924-.014c3.229-.012 6.457-.003 9.686.007q3.474-.007 6.949-.016c6.289-.014 12.578-.008 18.867.001 6.58.008 13.16 0 19.739-.004 11.757-.007 23.514.003 35.272.019q15.985.018 31.97-.003 18.57-.025 37.14-.013c6.552.004 13.104.005 19.656-.005q9.239-.013 18.477.015 3.393.006 6.785-.004c3.085-.008 6.17.002 9.254.017l2.718-.02c6.362.06 10.523 1.104 15.266 5.643 2.109 3.51 2.163 5.802 2.172 9.887l.02 2.14c.019 2.362.009 4.723-.002 7.084q.011 2.543.027 5.087c.022 4.6.02 9.202.01 13.803-.005 3.842.002 7.684.01 11.526.017 9.064.013 18.128-.004 27.192-.017 9.35 0 18.699.032 28.048a5497 5497 0 0 1 .025 24.087c-.005 4.795-.003 9.589.018 14.384q.025 6.763-.012 13.525a464 464 0 0 0 .01 4.961c.017 2.26.002 4.518-.02 6.778l-.003 3.83c-.845 4.623-2.248 6.172-5.626 9.426-4.461 2.733-9.444 2.282-14.52 2.26l-2.92.012c-3.233.01-6.465.007-9.696.003q-3.475.007-6.949.015c-6.293.014-12.586.014-18.88.012q-7.876 0-15.753.008-19.642.016-39.285.005c-11.37-.006-22.74.006-34.11.025q-17.518.03-35.034.024c-6.555-.002-13.11 0-19.665.014q-9.246.019-18.49-.002-3.394-.004-6.79.009c-3.087.01-6.173.002-9.26-.01l-2.72.022c-6.367-.056-10.527-1.097-15.271-5.641-2.104-3.5-2.16-5.773-2.165-9.847l-.019-2.128c-.016-2.348-.003-4.695.01-7.042q-.009-2.53-.022-5.057c-.018-4.575-.011-9.149.002-13.723.01-4.789 0-9.577-.006-14.366q-.01-12.063.022-24.127c.021-9.295.014-18.59-.008-27.884q-.026-11.974-.01-23.947c.006-4.767.007-9.533-.006-14.3q-.017-6.723.02-13.447.008-2.466-.006-4.931c-.01-2.247.003-4.493.023-6.74l.005-3.806C.11 24.25 1.273 22.185 4 19c5.03-3.517 9.731-3.425 15.64-3.381M11 29a90 90 0 0 0-.12 5.131l-.004 3.363.01 3.737v3.965q.001 5.327.013 10.653.007 4.992.006 9.984c.006 9.743.02 19.486.033 29.23L11 161h234l.063-65.937.027-20.856.005-12.289q.003-4.12.01-8.24c.009-4.149.009-8.298.009-12.447l.01-3.737-.004-3.363.003-2.946c.122-2.162.122-2.162-1.123-3.185-2.981-.1-5.94-.134-8.921-.127l-2.871-.005c-3.201-.004-6.402 0-9.603.003l-6.852-.006q-9.334-.005-18.669 0c-6.497.003-12.993 0-19.49 0q-17.418-.004-34.836.006a36701 36701 0 0 1-31.616-.001q-18.337-.01-36.673-.005-9.714.003-19.428-.001-9.13-.004-18.261.005-3.361 0-6.723-.002-4.567-.002-9.136.006l-2.724-.007C14.285 27.49 14.285 27.49 11 29m109 151c-.917 3.5-.917 3.5 0 7 2.484 3.153 2.484 3.153 6 5 3.662.073 5.369-.568 8.375-2.625 2.304-3.368 2.256-5.377 1.625-9.375-2.446-3.381-3.893-4.77-8-5.625-4.107.856-5.554 2.244-8 5.625"/><path fill="#EE9A46" d="M96 209h64v11l3-.14c9.11-.302 15.59.06 22.5 6.452 1.968 3.527 2.079 5.708 1.5 9.688-1.376 2.182-1.376 2.182-4 4-3.491.606-6.952.546-10.488.518l-3.234.02c-3.53.018-7.06.007-10.59-.007l-7.353.012a3222 3222 0 0 1-15.414-.022c-6.591-.022-13.182-.01-19.773.015-5.062.014-10.123.01-15.184 0q-3.645-.005-7.292.01c-3.395.01-6.789-.006-10.184-.028l-3.054.024c-6.773-.082-6.773-.082-10.054-2.363-2.081-3.286-1.972-5.367-1.38-9.179 2.531-3.988 5.086-6.808 9.621-8.543 5.674-1.09 11.627-.657 17.379-.457z"/><path fill="#ED9A47" d="m155.5 70.563 2.34-.061c5.632.005 5.632.005 7.88 2.103 1.71 3.201 1.661 5.586 1.668 9.211l.016 2.052c.013 2.232.005 4.463-.006 6.695q.003 2.331.01 4.662.005 4.883-.017 9.764c-.017 4.17-.007 8.34.01 12.51.012 3.208.008 6.416 0 9.625q-.004 2.305.008 4.612c.008 2.15-.004 4.298-.02 6.448l-.008 3.704c-.413 3.376-.906 4.802-3.381 7.112-2.982.379-5.53.514-8.5.438l-2.34.021c-5.537-.062-5.537-.062-7.88-1.555-1.947-2.896-1.662-5.344-1.668-8.806l-.016-2.115c-.013-2.307-.005-4.613.006-6.92q-.003-2.405-.01-4.809-.005-5.04.017-10.077c.017-4.308.007-8.615-.01-12.923-.012-3.31-.008-6.62 0-9.93q.004-2.382-.008-4.764c-.007-2.22.004-4.438.02-6.658l.008-3.828C144 74 144 74 145.28 72.096c3.089-1.968 6.675-1.566 10.22-1.534"/><path fill="#EE9A46" d="m47 41 .044 2.982c.058 3.65.135 7.302.218 10.952q.051 2.37.084 4.74c.034 2.272.086 4.543.142 6.814l.02 2.14c.081 2.723.232 4.898 1.554 7.31 3.02 1.656 6.088 1.543 9.45 1.574l2.206.054c2.323.054 4.646.088 6.97.121q2.364.05 4.728.104Q78.207 77.917 84 78c-2.58 8.816-6.46 15.765-14.75 20.438-8.438 3.59-17.553 4.702-26.25 1.562-8.532-3.873-13.48-8.967-17.633-17.262-1.456-3.982-1.869-7.428-1.805-11.613l.026-2.129c.286-8.81 3.434-14.796 9.338-21.2C36.627 44.59 41.949 41 47 41M221 81.688l2.195-.01c3.786.038 5.588.177 8.805 2.322.374 2.619.374 2.619.372 5.979l.02 3.802-.029 4.125q0 2.108.002 4.215 0 4.417-.029 8.837c-.023 3.78-.023 7.559-.016 11.339q.002 4.351-.013 8.704-.006 2.09-.004 4.181c0 1.947-.014 3.893-.028 5.84l-.014 3.36C232 147 232 147 230 149c-2.853.199-5.587.278-8.437.25l-2.354.023c-3.91-.013-5.888-.06-9.209-2.273-.381-2.574-.381-2.574-.388-5.87l-.029-3.733.019-4.05q-.003-2.07-.01-4.14-.005-4.341.017-8.682c.017-3.71.007-7.42-.01-11.13-.012-2.852-.008-5.702 0-8.553q.004-2.052-.008-4.104a493 493 0 0 1 .02-5.738l.008-3.299C210 85 210 85 211.294 83.148c2.936-1.975 6.295-1.536 9.706-1.46M122.563 97.688l3.378.011c2.941.29 4.657.61 7.059 2.301.905 2.714 1.135 4.34 1.161 7.133l.03 2.508.012 2.699.017 2.783q.014 2.914.02 5.828c.01 2.972.041 5.943.072 8.914q.01 2.832.016 5.662l.038 2.693c-.013 3.583-.028 6.102-1.642 9.341-2.97 2.48-6.545 1.972-10.224 1.876l-2.34.022c-5.616-.063-5.616-.063-7.878-1.71-1.614-2.203-1.673-3.456-1.702-6.173l-.048-2.7v-2.907l-.024-2.993q-.015-3.132-.009-6.264c.001-3.2-.04-6.398-.085-9.599q-.008-3.04-.008-6.082l-.05-2.907c.026-2.476.093-4.71.644-7.124 3.63-3.267 6.78-3.385 11.563-3.312"/><path fill="#EE9A47" d="m187.938 97.5 3.652-.094c4.465.778 5.67 2.005 8.41 5.594.704 3.101.654 6.112.594 9.281v2.7a449 449 0 0 1-.052 5.639 507 507 0 0 0-.034 8.61q-.016 2.745-.04 5.489v2.592c-.091 4.622-.278 8.053-3.468 11.689-3.046.436-5.475.566-8.5.438l-2.34-.018c-3.86-.084-5.89-.24-9.16-2.42-.388-1.967-.388-1.967-.404-4.402l-.038-2.761.008-2.99-.015-3.063q-.01-3.212.003-6.423c.008-3.282-.02-6.562-.052-9.843q-.003-3.116.002-6.233l-.034-2.983.028-2.77v-2.438C177 101 177 101 178.828 99.246c3.078-1.765 5.583-1.716 9.11-1.746"/><path fill="#EE9A46" d="M155.947 40.255c2.377.863 3.285 1.743 4.9 3.667l1.569 1.84 1.647 1.988 1.722 2.037q1.76 2.084 3.509 4.176a605 605 0 0 0 4.792 5.642C178.93 65.258 183.626 70.97 188 77c7.344-3.736 13.774-8.364 20.352-13.281l1.82-1.355q1.88-1.403 3.743-2.828c4.76-3.557 4.76-3.557 8.023-3.348L224 57c-.244 3.538-.783 4.79-3.379 7.29l-3.183 2.335-1.723 1.276C208.608 73.115 201.34 78.12 194 83l-2.719 1.879C189 86 189 86 186.941 85.984c-2.762-1.4-4.112-3.287-6.003-5.734l-2.38-3.016-1.258-1.603c-2.203-2.764-4.505-5.443-6.8-8.131-4.909-5.773-9.724-11.616-14.5-17.5-9.68 4.437-17.012 14-24.197 21.588l-2.44 2.502-2.178 2.277C124.572 78.32 123.187 78.35 120 78c-.715-2.258-.715-2.258-1-5 1.371-1.992 1.371-1.992 3.438-3.875l1.996-1.867a422 422 0 0 1 4.325-3.763c5.29-4.556 10.223-9.391 15.116-14.37q2.242-2.28 4.492-4.555l1.972-2.007c1.97-1.853 2.876-2.666 5.608-2.308M55.031 39.848c9.344.813 17.107 4.229 23.5 11.21C83.241 57.284 85.073 64.235 85 72l-1 2q-6.809.037-13.617.055-2.317.008-4.636.02c-2.216.013-4.433.018-6.65.023l-2.105.015c-1.664 0-3.329-.051-4.992-.113-2.475-2.475-1.173-8.54-1.186-12.01v-2.2c-.001-2.215-.02-4.429-.039-6.644q-.005-2.102-.005-4.205l-.013-3.884c.27-3.405.645-4.937 4.274-5.21M31.428 110.855l3.438-.02 3.728-.003 3.81-.01q3.996-.008 7.99-.007c3.417 0 6.833-.014 10.25-.031 3.254-.014 6.508-.013 9.762-.014l3.728-.022 3.438.01 3.037-.005C83 111 83 111 85 113c-.536 3.536-.536 3.536-2 5-1.805.099-3.614.128-5.422.13l-3.509.009-3.819-.006-3.89.003q-4.08.001-8.16-.006-5.242-.006-10.483.004-4.983.004-9.967-.001l-3.82.006-3.508-.01-3.107-.002C25 118 25 118 24 117a100 100 0 0 1 0-5c2.602-1.301 4.514-1.134 7.428-1.145M27.36 142.88l3.17.006h3.579l3.895.016 3.964.005q5.226.006 10.45.024 5.33.014 10.658.02Q73.54 142.967 84 143a88 88 0 0 1 1 5c-1 1-1 1-3.36 1.12l-3.17-.006h-3.579l-3.895-.016-3.964-.005q-5.226-.006-10.45-.024-5.33-.014-10.658-.02Q35.46 149.033 25 149a88 88 0 0 1-1-5c1-1 1-1 3.36-1.12"/><path fill="#ED9A46" d="m30.406 126.855 3.499-.02 3.81-.003 3.882-.01q4.075-.009 8.149-.007c3.485 0 6.97-.014 10.455-.031 3.317-.014 6.634-.013 9.951-.014l3.804-.022 3.509.01 3.1-.005C83 127 83 127 85 129l-1 4H24c0-6.74.35-6.123 6.406-6.145"/><path fill="#EE9A46" d="M126 179c4.556.556 4.556.556 6 2 .125 2.5.125 2.5 0 5-1 1-1 1-4 1.125-3-.125-3-.125-4-1.125-.187-2.437-.187-2.437 0-5z"/></svg>