<svg width="26" height="26" viewBox="0 0 26 26" fill="none" xmlns="http://www.w3.org/2000/svg">
<path fill-rule="evenodd" clip-rule="evenodd" d="M13 1.03662C6.22639 1.03662 0.733688 6.5281 0.733688 13.3029C0.733688 18.7227 4.24836 23.3204 9.12214 24.9426C9.73497 25.0564 9.96003 24.6765 9.96003 24.3525C9.96003 24.06 9.94866 23.0938 9.94338 22.0688C6.53088 22.8108 5.8108 20.6215 5.8108 20.6215C5.25281 19.2037 4.44884 18.8267 4.44884 18.8267C3.33572 18.0654 4.53274 18.0812 4.53274 18.0812C5.76428 18.1676 6.41306 19.3453 6.41306 19.3453C7.50709 21.2201 9.28261 20.6782 9.98258 20.365C10.0927 19.5722 10.4106 19.0309 10.7614 18.7245C8.03684 18.4148 5.17258 17.3628 5.17258 12.6627C5.17258 11.3235 5.65195 10.2292 6.43663 9.37003C6.30906 9.06128 5.8892 7.81368 6.55525 6.12409C6.55525 6.12409 7.58509 5.79442 9.92916 7.38143C10.9078 7.10945 11.9574 6.97275 13 6.96807C14.042 6.97275 15.0922 7.10904 16.0727 7.38103C18.4139 5.79401 19.4425 6.12368 19.4425 6.12368C20.1102 7.81307 19.6903 9.06087 19.563 9.36962C20.3495 10.2288 20.8254 11.3231 20.8254 12.6623C20.8254 17.3736 17.9558 18.4107 15.2244 18.7146C15.6646 19.0952 16.0566 19.8419 16.0566 20.9861C16.0566 22.6274 16.0424 23.9483 16.0424 24.3523C16.0424 24.6787 16.2634 25.0612 16.885 24.9408C21.7559 23.317 25.2665 18.7207 25.2665 13.3029C25.2663 6.52851 19.7742 1.03682 13 1.03682V1.03662Z" fill="white" fill-opacity="0.6"/>
<path d="M5.37957 18.6481C5.35255 18.709 5.25668 18.7273 5.16934 18.6856C5.07996 18.6458 5.0302 18.5628 5.05904 18.5016C5.08545 18.4386 5.18152 18.4214 5.27029 18.4634C5.35966 18.5034 5.41045 18.5873 5.37937 18.6483L5.37957 18.6481ZM5.87641 19.2024C5.81812 19.2566 5.70376 19.2314 5.62616 19.1455C5.54573 19.0602 5.5307 18.9459 5.59021 18.8908C5.65074 18.8368 5.76165 18.8624 5.84209 18.9477C5.92212 19.0342 5.93796 19.1476 5.87662 19.2026L5.87641 19.2024ZM6.36026 19.9087C6.2851 19.9611 6.16201 19.9121 6.08604 19.803C6.01088 19.6938 6.01088 19.5627 6.08807 19.5105C6.16384 19.4581 6.2851 19.5055 6.36229 19.6135C6.43704 19.7242 6.43704 19.8552 6.36026 19.9085V19.9087ZM7.02265 20.5914C6.95562 20.6655 6.81221 20.6456 6.7074 20.5446C6.60035 20.4457 6.57049 20.305 6.63773 20.231C6.70598 20.1567 6.84999 20.1774 6.95541 20.2777C7.06246 20.3765 7.09476 20.5174 7.02305 20.5912L7.02265 20.5914ZM7.93671 20.9877C7.90685 21.0837 7.76913 21.1274 7.62999 21.0864C7.49126 21.0443 7.40046 20.932 7.4289 20.8349C7.45734 20.738 7.59607 20.6927 7.73602 20.7364C7.87476 20.7782 7.96555 20.89 7.93671 20.9877ZM8.94076 21.061C8.94421 21.1621 8.8264 21.2458 8.68076 21.2479C8.5339 21.2513 8.41507 21.1693 8.41365 21.0697C8.41365 20.9676 8.52902 20.8849 8.67568 20.882C8.82132 20.8794 8.94096 20.9606 8.94096 21.0608L8.94076 21.061ZM9.87473 20.9021C9.89219 21.0007 9.79084 21.102 9.64601 21.129C9.50382 21.1554 9.37179 21.0941 9.35351 20.9964C9.33604 20.8952 9.43923 20.7939 9.58141 20.7677C9.72644 20.7427 9.85644 20.8022 9.87473 20.9024V20.9021Z" fill="white" fill-opacity="0.6"/>
</svg>
