<svg width="31" height="30" viewBox="0 0 31 30" fill="none" xmlns="http://www.w3.org/2000/svg">
<path d="M0 30L2.17904 22.2962C0.834415 20.0413 0.127875 17.485 0.129166 14.8637C0.133041 6.66875 7.02407 0 15.4909 0C19.5997 0.00125 23.4566 1.55 26.3577 4.36C29.2575 7.17 30.854 10.905 30.8527 14.8775C30.8488 23.0738 23.9578 29.7425 15.4909 29.7425C12.9205 29.7413 10.3876 29.1175 8.14394 27.9325L0 30ZM8.52111 25.2413C10.6859 26.485 12.7526 27.23 15.4858 27.2313C22.5227 27.2313 28.2551 21.6887 28.259 14.875C28.2616 8.0475 22.5563 2.5125 15.4961 2.51C8.45394 2.51 2.72541 8.0525 2.72283 14.865C2.72154 17.6462 3.5637 19.7287 4.97807 21.9075L3.6877 26.4675L8.52111 25.2413ZM23.2293 18.4113C23.1337 18.2563 22.878 18.1637 22.493 17.9775C22.1094 17.7913 20.2223 16.8925 19.8697 16.7687C19.5183 16.645 19.2626 16.5825 19.0055 16.955C18.7498 17.3263 18.0135 18.1637 17.7901 18.4113C17.5666 18.6588 17.3419 18.69 16.9583 18.5037C16.5746 18.3175 15.3372 17.9263 13.8712 16.66C12.7306 15.675 11.9595 14.4587 11.7361 14.0863C11.5126 13.715 11.7128 13.5138 11.904 13.3288C12.0771 13.1625 12.2876 12.895 12.4801 12.6775C12.6751 12.4625 12.7384 12.3075 12.8676 12.0588C12.9954 11.8113 12.9321 11.5938 12.8353 11.4075C12.7384 11.2225 11.9711 9.39375 11.6521 8.65C11.3395 7.92625 11.0231 8.02375 10.788 8.0125L10.0517 8C9.79598 8 9.38006 8.0925 9.02873 8.465C8.6774 8.8375 7.6854 9.735 7.6854 11.5638C7.6854 13.3925 9.06102 15.1587 9.25219 15.4062C9.44464 15.6537 11.9582 19.4062 15.8087 21.015C16.7245 21.3975 17.44 21.6262 17.9967 21.7975C18.9164 22.08 19.7534 22.04 20.4147 21.945C21.1523 21.8387 22.6855 21.0462 23.0058 20.1787C23.3262 19.31 23.3262 18.5662 23.2293 18.4113Z" fill="white"/>
</svg>
